<svg width="25" height="24" viewBox="0 0 25 24" fill="none" xmlns="http://www.w3.org/2000/svg">
<path d="M7.02448 4.61149C11.1004 1.4854 14.8144 0.811168 17.6055 1.01676C18.9924 1.11898 20.1392 1.43694 20.9776 1.76578C21.3966 1.93016 21.7426 2.09924 22.0059 2.24723C22.2467 2.38261 22.4726 2.53069 22.6085 2.66617C22.7345 2.79187 22.8219 2.9599 22.8692 3.05485C22.9318 3.1804 22.9986 3.33493 23.0655 3.50992C23.1999 3.86151 23.3488 4.32874 23.4864 4.88492C23.7617 5.99777 23.9984 7.49639 23.9708 9.17692C23.9576 9.97356 23.8835 10.8131 23.7266 11.673C23.7376 11.8086 23.7118 11.9452 23.6495 12.0695C23.0858 14.7332 21.6917 17.5549 18.7598 19.8625C14.8104 22.9705 11.0191 23.8054 8.1192 23.7472C6.67577 23.7182 5.45618 23.4685 4.55085 23.172C4.09893 23.024 3.71637 22.8609 3.41901 22.7033C3.27076 22.6247 3.13504 22.543 3.0196 22.4601C2.91424 22.3845 2.78481 22.28 2.68463 22.1466C2.59905 22.0327 2.52835 21.8893 2.4737 21.7677C2.4127 21.632 2.34801 21.4671 2.28229 21.2795C2.15045 20.9028 2.0066 20.4104 1.87799 19.8302C1.62097 18.6705 1.41688 17.1311 1.48639 15.4162C1.62597 11.9756 2.87434 7.79475 7.02448 4.61149ZM3.04889 14.6164C3.02005 14.9072 2.99687 15.1945 2.98542 15.4767C2.92199 17.0412 3.10876 18.45 3.34284 19.506C3.45977 20.0335 3.58684 20.4677 3.69733 20.7834C3.75264 20.9413 3.80248 21.0648 3.84186 21.1525C3.85689 21.1859 3.86766 21.2112 3.87604 21.2277C3.88119 21.2316 3.88721 21.237 3.8946 21.2423C3.94174 21.2762 4.01635 21.3225 4.12116 21.3781C4.33067 21.4891 4.63246 21.6201 5.01764 21.7463C5.78672 21.9981 6.85933 22.2213 8.14948 22.2472C8.88413 22.262 9.69067 22.2089 10.5538 22.0636L3.04889 14.6164ZM13.2462 2.99528C11.6277 3.47592 9.83726 4.34494 7.93756 5.80192C5.24769 7.86512 3.92167 10.3831 3.34772 12.8009L12.2755 21.6584C14.0004 21.1361 15.8869 20.2154 17.8331 18.6838C20.368 16.6886 21.6109 14.2728 22.1397 11.9504L13.2462 2.99528ZM7.12506 10.6847C7.41703 10.4062 7.88069 10.4173 8.15924 10.7091L9.57624 12.1955L9.66706 12.3127C9.84757 12.6005 9.808 12.9849 9.5528 13.2287C9.26101 13.507 8.7982 13.4966 8.5196 13.2052L7.10065 11.7179C6.82252 11.426 6.83338 10.9632 7.12506 10.6847ZM9.16315 8.70035C9.45512 8.42186 9.91878 8.43288 10.1973 8.72477L11.6143 10.2111L11.7051 10.3283C11.8857 10.6161 11.8461 11.0005 11.5909 11.2443C11.2991 11.5227 10.8363 11.5123 10.5577 11.2209L9.13874 9.73356C8.86064 9.44162 8.87152 8.9788 9.16315 8.70035ZM17.4952 2.51285C16.7401 2.45724 15.8953 2.47267 14.9756 2.60953L22.421 10.1056C22.4478 9.78217 22.4656 9.46378 22.4708 9.15153C22.4959 7.62179 22.2799 6.25421 22.0303 5.24528C21.9056 4.74102 21.7741 4.33266 21.6641 4.04508C21.6089 3.90073 21.5613 3.7937 21.5264 3.72379C21.523 3.71698 21.5196 3.7108 21.5167 3.70524C21.4757 3.67675 21.3967 3.62573 21.2706 3.55485C21.0701 3.44218 20.7871 3.30247 20.4298 3.16227C19.715 2.88194 18.7155 2.60279 17.4952 2.51285ZM11.2706 6.79703C11.5625 6.51854 12.0262 6.52859 12.3048 6.82047L13.7217 8.3068L13.8126 8.42399C13.9932 8.7118 13.9535 9.09615 13.6983 9.34C13.4064 9.61841 12.9437 9.60816 12.6651 9.31657L11.2462 7.82926C10.9683 7.53741 10.9793 7.07546 11.2706 6.79703Z" fill="#707070"/>
</svg>
