<svg width="17" height="17" viewBox="0 0 17 17" fill="none" xmlns="http://www.w3.org/2000/svg">
<g clip-path="url(#clip0_14583_163898)">
<path fill-rule="evenodd" clip-rule="evenodd" d="M13.5367 9.9372C13.7871 9.07176 13.8141 8.15701 13.6153 7.2783C13.4164 6.39959 12.9983 5.58557 12.3998 4.91218C11.8012 4.2388 11.0419 3.72801 10.1926 3.42746C9.84549 3.30463 9.66368 2.92369 9.78651 2.57659C9.90934 2.22949 10.2903 2.04768 10.6374 2.17051C11.699 2.54619 12.6482 3.18468 13.3963 4.02641C14.1445 4.86814 14.6672 5.88567 14.9157 6.98405C15.1642 8.08244 15.1305 9.22588 14.8176 10.3077C14.5056 11.3861 13.9265 12.3681 13.1339 13.1629L11.2896 15.1257L13.7483 15.1257C14.1165 15.1257 14.415 15.4241 14.415 15.7923C14.415 16.1605 14.1165 16.459 13.7483 16.459L9.74832 16.459C9.38013 16.459 9.08165 16.1605 9.08165 15.7923L9.08165 11.7923C9.08165 11.4241 9.38013 11.1257 9.74832 11.1257C10.1165 11.1257 10.415 11.4241 10.415 11.7923L10.415 14.1093L12.1692 12.2425C12.1739 12.2374 12.1788 12.2324 12.1837 12.2275C12.8209 11.5906 13.2864 10.8026 13.5367 9.9372ZM7.08166 0.458984C7.44985 0.458984 7.74832 0.757461 7.74832 1.12565L7.74832 5.12565C7.74832 5.49384 7.44985 5.79232 7.08166 5.79232C6.71346 5.79232 6.41499 5.49384 6.41499 5.12565L6.41499 2.80868L4.66082 4.6755C4.65605 4.68058 4.6512 4.68558 4.64627 4.69051C4.00907 5.32739 3.54358 6.11532 3.29325 6.98076C3.04292 7.84621 3.0159 8.76096 3.21472 9.63967C3.41354 10.5184 3.83172 11.3324 4.43023 12.0058C5.02874 12.6792 5.78807 13.19 6.63739 13.4905C6.98448 13.6133 7.16629 13.9943 7.04347 14.3414C6.92064 14.6885 6.53969 14.8703 6.19259 14.7475C5.13095 14.3718 4.18178 13.7333 3.43364 12.8916C2.68551 12.0498 2.16279 11.0323 1.91426 9.93392C1.66574 8.83553 1.69951 7.69209 2.01242 6.61028C2.32434 5.53192 2.9035 4.54983 3.69612 3.75505L5.54041 1.79232L3.08165 1.79232C2.71346 1.79232 2.41499 1.49384 2.41499 1.12565C2.41499 0.757461 2.71346 0.458984 3.08165 0.458984L7.08166 0.458984Z" fill="#1570EF"/>
</g>
<defs>
<clipPath id="clip0_14583_163898">
<rect width="16" height="16" fill="white" transform="translate(16.415 0.458984) rotate(90)"/>
</clipPath>
</defs>
</svg>
