<svg width="21" height="16" viewBox="0 0 21 16" fill="none" xmlns="http://www.w3.org/2000/svg">
<path d="M7.93066 15.9638C6.514 15.9638 5.18066 15.5471 3.93066 14.7971C2.764 14.0471 1.764 12.9638 1.18066 11.7138C0.597331 10.4638 0.347331 9.04712 0.430664 7.63045C0.597331 6.21378 1.09733 4.88045 1.93066 3.79712C2.764 2.71378 3.93066 1.88045 5.264 1.38045C6.59733 0.963783 8.09733 0.797116 9.43066 1.13045C10.8473 1.38045 12.0973 2.04712 13.0973 3.04712C13.9307 3.88045 14.5973 4.88045 15.014 5.96378H15.4307C16.764 5.96378 18.014 6.46378 18.9307 7.46378C19.8473 8.38045 20.4307 9.63045 20.4307 10.9638C20.4307 12.2971 19.9307 13.5471 18.9307 14.4638C18.014 15.4638 16.764 15.9638 15.4307 15.9638H7.93066ZM7.93066 2.63045C7.264 2.63045 6.514 2.71378 5.93066 2.96378C4.84733 3.38045 4.014 4.04712 3.34733 4.88045C2.68066 5.79712 2.264 6.79712 2.09733 7.88045C2.014 8.96378 2.18066 10.0471 2.68066 11.0471C3.18066 12.0471 3.93066 12.8804 4.84733 13.4638C5.764 13.9638 6.84733 14.2971 7.93066 14.2971H15.4307C16.3473 14.2971 17.1807 13.9638 17.764 13.2971C18.4307 12.6304 18.764 11.7971 18.764 10.9638C18.764 10.1304 18.4307 9.21378 17.764 8.63045C17.1807 7.96378 16.3473 7.63045 15.4307 7.63045H14.3473C13.9307 7.63045 13.5973 7.38045 13.514 6.96378C13.264 5.88045 12.6807 4.96378 11.8473 4.21378C11.0973 3.46378 10.0973 2.96378 9.014 2.71378C8.68066 2.63045 8.34733 2.63045 7.93066 2.63045Z" fill="#1A1A1A"/>
<path fill-rule="evenodd" clip-rule="evenodd" d="M11.6502 7.14753C11.8001 7.29737 11.8001 7.5403 11.6502 7.69013L7.4298 11.9106C7.27997 12.0604 7.03704 12.0604 6.8872 11.9106L4.96882 9.99219C4.81899 9.84236 4.81899 9.59943 4.96882 9.44959C5.11866 9.29976 5.36159 9.29976 5.51142 9.44959L7.1585 11.0967L11.1076 7.14753C11.2575 6.9977 11.5004 6.9977 11.6502 7.14753Z" fill="#039855" stroke="#039855" stroke-width="0.833333" stroke-linecap="round" stroke-linejoin="round"/>
</svg>
