<svg width="21" height="21" viewBox="0 0 21 21" fill="none" xmlns="http://www.w3.org/2000/svg">
<g clip-path="url(#clip0_8338_2706)">
<path fill-rule="evenodd" clip-rule="evenodd" d="M13.2885 3.30034C11.8112 2.64209 10.1607 2.47902 8.58315 2.83545C7.00559 3.19187 5.58552 4.0487 4.53471 5.27814C3.48391 6.50758 2.85868 8.04376 2.75226 9.65757C2.64585 11.2714 3.06395 12.8764 3.94422 14.2331C4.82449 15.5899 6.11976 16.6258 7.63686 17.1863C9.15395 17.7468 10.8116 17.8018 12.3625 17.3433C13.9135 16.8847 15.2746 15.9371 16.243 14.6417C17.2114 13.3463 17.7351 11.7727 17.736 10.1553V9.38915C17.736 8.92891 18.1091 8.55581 18.5693 8.55581C19.0296 8.55581 19.4027 8.92891 19.4027 9.38915V10.1558C19.4015 12.1325 18.7615 14.0564 17.5779 15.6396C16.3943 17.2228 14.7307 18.3811 12.8351 18.9415C10.9395 19.502 8.91349 19.4347 7.05927 18.7497C5.20504 18.0646 3.62194 16.7985 2.54605 15.1403C1.47016 13.482 0.959145 11.5203 1.08921 9.54791C1.21927 7.57547 1.98344 5.69792 3.26776 4.19527C4.55208 2.69262 6.28772 1.64539 8.21584 1.20976C10.144 0.774122 12.1612 0.973431 13.9668 1.77796C14.3872 1.96527 14.5762 2.45792 14.3889 2.87831C14.2015 3.29871 13.7089 3.48765 13.2885 3.30034ZM19.1583 2.8996C19.4839 3.22487 19.4842 3.75251 19.1589 4.07811L10.8256 12.4198C10.6693 12.5762 10.4573 12.6641 10.2362 12.6641C10.0151 12.6642 9.80308 12.5764 9.64675 12.4201L7.14675 9.92007C6.82132 9.59463 6.82132 9.06699 7.14675 8.74156C7.47219 8.41612 7.99983 8.41612 8.32526 8.74156L10.2357 10.652L17.9798 2.90018C18.3051 2.57458 18.8327 2.57432 19.1583 2.8996Z" fill="white"/>
</g>
<defs>
<clipPath id="clip0_8338_2706">
<rect width="20" height="20" fill="white" transform="translate(0.236328 0.155762)"/>
</clipPath>
</defs>
</svg>
