<svg width="44" height="54" viewBox="0 0 44 54" fill="none" xmlns="http://www.w3.org/2000/svg">
<path fill-rule="evenodd" clip-rule="evenodd" d="M21.3302 0.867372C21.8773 0.662211 22.4802 0.662211 23.0273 0.867372L42.3606 8.11737C43.3038 8.47108 43.9287 9.37279 43.9287 10.3802V27.2968C43.9287 35.6257 38.4145 42.2809 33.4368 46.6364C30.8971 48.8586 28.3689 50.5955 26.4804 51.7758C25.5336 52.3676 24.7412 52.8234 24.1799 53.1341C23.8991 53.2896 23.6757 53.409 23.5192 53.4911C23.4409 53.5322 23.3794 53.564 23.3357 53.5863L23.2837 53.6128L23.2681 53.6207L23.2629 53.6233C23.2621 53.6237 23.2595 53.625 22.1787 51.4635C21.0979 53.625 21.0972 53.6247 21.0965 53.6243L21.0893 53.6207L21.0737 53.6128L21.0217 53.5863C20.9781 53.564 20.9165 53.5322 20.8382 53.4911C20.6818 53.409 20.4584 53.2896 20.1776 53.1341C19.6163 52.8234 18.8238 52.3676 17.877 51.7758C15.9885 50.5955 13.4603 48.8586 10.9207 46.6364C5.94293 42.2809 0.428711 35.6257 0.428711 27.2968V10.3802C0.428711 9.37279 1.0536 8.47108 1.99683 8.11737L21.3302 0.867372ZM22.1787 51.4635L21.0965 53.6243C21.7768 53.9645 22.5791 53.9652 23.2595 53.625L22.1787 51.4635ZM22.1787 48.7152C22.6418 48.4527 23.2341 48.1051 23.9187 47.6772C25.6552 46.5919 27.9603 45.0059 30.254 42.9989C34.9429 38.8961 39.0954 33.4679 39.0954 27.2968V12.0549L22.1787 5.71117L5.26204 12.0549V27.2968C5.26204 33.4679 9.41449 38.8961 14.1034 42.9989C16.3971 45.0059 18.7022 46.5919 20.4387 47.6772C21.1233 48.1051 21.7156 48.4527 22.1787 48.7152Z" fill="#2E90FA"/>
</svg>
